<svg width="149" height="80" viewBox="0 0 149 80" fill="none" xmlns="http://www.w3.org/2000/svg">
<path fill-rule="evenodd" clip-rule="evenodd" d="M149 63.4285C149 66.9001 146.199 69.714 142.744 69.714C139.29 69.714 136.489 66.9001 136.489 63.4285C136.489 59.9569 139.29 57.1426 142.744 57.1426C146.199 57.1426 149 59.9569 149 63.4285Z" fill="#CC9966"/>
<path fill-rule="evenodd" clip-rule="evenodd" d="M80.3317 68.0034C77.3094 68.0034 76.753 65.3781 76.753 59.1512C76.753 52.924 77.3094 49.0422 80.3317 49.0422C83.3537 49.0422 83.9105 52.924 83.9105 59.1512C83.9105 65.3781 83.3537 68.0034 80.3317 68.0034ZM83.0237 46.9143C79.9738 47.0482 78.5825 47.9673 77.4169 49.8146H77.0195V36.5723C73.5997 37.8566 70.3673 38.644 67.1069 38.644V39.4722H69.4641V68.8869H70.259C72.168 67.3537 74.5935 66.4011 76.6216 66.4011C77.8939 68.4724 80.1209 69.7108 82.9838 69.7151C89.5293 69.7263 92.1298 64.9777 92.1298 57.9763C92.1298 50.5669 88.5861 46.6714 83.0237 46.9143Z" fill="#1E1E1E"/>
<path fill-rule="evenodd" clip-rule="evenodd" d="M45.2216 22.2849C45.2216 16.0922 44.6449 12.2316 41.5153 12.2316C38.3857 12.2316 37.809 16.0922 37.809 22.2849C37.809 28.4775 38.3857 32.3377 41.5153 32.3377C44.6449 32.3377 45.2216 28.4775 45.2216 22.2849ZM29.5728 22.2849C29.5728 15.5695 34.1027 11.4277 41.5153 11.4277C48.9279 11.4277 53.4583 15.5695 53.4583 22.2849C53.4583 29.0003 48.9279 33.142 41.5153 33.142C34.1027 33.142 29.5728 29.0003 29.5728 22.2849Z" fill="#1E1E1E"/>
<path fill-rule="evenodd" clip-rule="evenodd" d="M57.3708 32.3378H56.5523L55.7329 23.8932H56.1426C57.9447 29.0807 61.179 32.2574 64.7004 32.2574C66.9524 32.2574 68.4267 30.9304 68.4267 29.0807C68.4267 26.4668 65.4786 25.7029 62.4076 24.6575C59.1318 23.5717 55.7329 22.1243 55.7329 17.8618C55.7329 13.8809 58.6402 11.4277 64.0044 11.4277C67.075 11.4277 68.8771 12.232 72.5211 12.232H73.34L74.1586 19.47H73.7497C71.9888 15.0871 69.1638 12.4332 66.3383 12.4332C64.3725 12.4332 63.1036 13.6798 63.1036 15.4087C63.1036 18.103 66.2153 18.9073 69.4089 19.9527C72.767 21.0785 76.2062 22.4858 76.2062 26.5875C76.2062 30.85 72.5622 33.142 66.4202 33.142C62.7762 33.142 61.4657 32.3378 57.3708 32.3378Z" fill="#1E1E1E"/>
<path fill-rule="evenodd" clip-rule="evenodd" d="M80.1189 32.3378H79.2999L78.481 23.8932H78.8907C80.6927 29.0807 83.927 32.2574 87.4484 32.2574C89.7005 32.2574 91.1747 30.9304 91.1747 29.0807C91.1747 26.4668 88.2263 25.7029 85.1557 24.6575C81.8794 23.5717 78.481 22.1243 78.481 17.8618C78.481 13.8809 81.3883 11.4277 86.7525 11.4277C89.8231 11.4277 91.6251 12.232 95.2691 12.232H96.0881L96.907 19.47H96.4978C94.7368 15.0871 91.9118 12.4332 89.0864 12.4332C87.1206 12.4332 85.8516 13.6798 85.8516 15.4087C85.8516 18.103 88.9634 18.9073 92.157 19.9527C95.5151 21.0785 98.9542 22.4858 98.9542 26.5875C98.9542 30.85 95.3102 33.142 89.1682 33.142C85.5242 33.142 84.2137 32.3378 80.1189 32.3378Z" fill="#1E1E1E"/>
<mask id="mask0" mask-type="alpha" maskUnits="userSpaceOnUse" x="0" y="44" width="28" height="35">
<path fill-rule="evenodd" clip-rule="evenodd" d="M0 44.9512H27.0183V78.9876H0V44.9512Z" fill="white"/>
</mask>
<g mask="url(#mask0)">
<path fill-rule="evenodd" clip-rule="evenodd" d="M14.9208 54.6759C14.9208 50.9482 14.2754 48.5983 12.0976 48.5983C9.92016 48.5983 9.27483 50.9482 9.27483 54.6759C9.27483 58.647 9.92016 61.1589 12.0976 61.1589C14.2754 61.1589 14.9208 58.647 14.9208 54.6759ZM0.201745 72.9095L0 70.8836L7.66212 71.694V72.9095C7.66212 76.1919 9.88006 78.177 13.4283 78.177C16.4528 78.177 18.3483 77.1643 18.3483 74.814C18.3483 71.8967 14.1944 71.532 9.96068 70.965C5.60499 70.4383 1.20963 69.7085 1.20963 61.9693L7.66212 61.5643V61.1589C3.66983 60.5105 1.20963 58.2009 1.20963 55.0813C1.20963 50.5427 5.32264 47.7875 12.0976 47.7875C16.0498 47.7875 19.1148 48.7196 20.9698 50.4215C21.0099 47.3015 22.2195 45.3159 24.1956 45.1539L27.0183 44.9512L26.6153 50.6242H21.7759L21.4534 50.9482C22.4617 52.0423 22.986 53.4605 22.986 55.0813C22.986 59.376 19.0739 61.605 12.1381 61.9693L7.66212 62.2127C7.66212 64.0359 9.51667 64.1979 12.4205 64.4816C17.8642 65.049 25.607 65.8187 25.607 71.532C25.607 76.1105 20.9698 78.9879 12.7834 78.9879C5.48428 78.9879 0.5643 76.6779 0.201745 72.9095Z" fill="#1E1E1E"/>
</g>
<path fill-rule="evenodd" clip-rule="evenodd" d="M28.4351 67.7517H30.0352L30.8434 66.9307V39.444H28.448V38.6238C31.7216 38.6238 35.0461 37.8441 38.5214 36.5723V66.9307L39.3296 67.7517L40.9465 67.7224V68.5425L28.4351 68.5723V67.7517Z" fill="#1E1E1E"/>
<path fill-rule="evenodd" clip-rule="evenodd" d="M57.7328 58.8571C57.7328 52.6649 57.1561 48.8043 54.0265 48.8043C50.8969 48.8043 50.3202 52.6649 50.3202 58.8571C50.3202 65.0498 50.8969 68.9104 54.0265 68.9104C57.1561 68.9104 57.7328 65.0498 57.7328 58.8571ZM42.084 58.8571C42.084 52.1418 46.6139 48 54.0265 48C61.4391 48 65.9695 52.1418 65.9695 58.8571C65.9695 65.5725 61.4391 69.7143 54.0265 69.7143C46.6139 69.7143 42.084 65.5725 42.084 58.8571Z" fill="#1E1E1E"/>
<path fill-rule="evenodd" clip-rule="evenodd" d="M109.354 59.3401V57.2488C104.952 58.6562 102.709 60.9886 102.709 64.2056C102.709 66.3369 103.706 67.7038 105.367 67.7038C107.9 67.7038 109.354 64.4468 109.354 59.3401ZM94.4048 64.8891C94.4048 61.5517 97.1037 59.6616 104.785 57.6512L109.354 56.445V53.6298C109.354 50.6544 107.983 48.8047 105.782 48.8047C103.499 48.8047 102.543 50.7751 103.499 54.0322L103.955 55.6403L95.6917 57.6512V54.3137C95.6917 50.4128 99.9273 48 106.405 48C113.464 48 117.243 50.8959 117.243 55.6403V68.1062H120.565V68.9104C115.873 68.9104 112.883 69.1112 109.769 69.7143V65.291H109.354C107.858 68.7093 106.197 69.7143 101.671 69.7143C96.896 69.7143 94.4048 68.1062 94.4048 64.8891Z" fill="#1E1E1E"/>
<path fill-rule="evenodd" clip-rule="evenodd" d="M121.702 67.7517H123.333L124.14 66.9307V39.444H121.748V38.6238C125.017 38.6238 128.338 37.8441 131.808 36.5723V66.9307L132.615 67.7517H134.214V68.5723H121.702V67.7517Z" fill="#1E1E1E"/>
<mask id="mask1" mask-type="alpha" maskUnits="userSpaceOnUse" x="1" y="0" width="28" height="32">
<path fill-rule="evenodd" clip-rule="evenodd" d="M1.34033 0.136719H28.6874V31.742H1.34033V0.136719Z" fill="white"/>
</mask>
<g mask="url(#mask1)">
<path fill-rule="evenodd" clip-rule="evenodd" d="M27.0885 30.9317L26.2819 30.1213V17.9653C26.2819 13.4271 23.4186 10.6723 19.2655 10.6723C16.3212 10.6723 13.1096 12.0497 11.8194 14.319H11.4159V0.136719C7.63535 1.38657 4.69648 2.02996 1.35286 2.16174V2.97217L3.75375 2.97343V30.1213L2.94719 30.9317H1.34033V31.7421H13.8289V30.9317H12.2224L11.4159 30.1213V18.7761C11.4426 14.9129 14.1576 12.942 16.1333 12.8979C18.1269 12.8534 18.6741 14.6459 18.6198 17.5603V30.1213L17.8132 30.9317H16.2101V31.7421H28.6874V30.9317H27.0885Z" fill="#1E1E1E"/>
</g>
</svg>
